<?xml version="1.0" encoding="utf-8"?>
<!-- Generator: Adobe Illustrator 23.0.6, SVG Export Plug-In . SVG Version: 6.00 Build 0)  -->
<svg version="1.1" id="Capa_1" xmlns="http://www.w3.org/2000/svg" xmlns:xlink="http://www.w3.org/1999/xlink" x="0px" y="0px"
	 viewBox="0 0 512 512" style="enable-background:new 0 0 512 512;" xml:space="preserve">
<style type="text/css">
	.st0{fill:#D6D6D6;stroke:#000000;stroke-miterlimit:10;}
	.st1{font-family:'MyriadPro-Regular';}
	.st2{font-size:12px;}
</style>
<g transform="matrix(6.00078e-17 -0.980002 0.980002 6.00078e-17 4.4477 440.367)">
	<g>
		<path class="st0" d="M417.8,227.1L203.9,13.2C195.6,4.8,185.6,0.7,174,0.7c-11.4,0-21.3,4.2-29.6,12.5l-24.6,24.6
			c-8.3,7.9-12.5,17.7-12.5,29.6c0,11.8,4.2,21.7,12.5,29.6l96.3,96.6H-15.3c-11.4,0-20.6,4.1-27.8,12.3s-10.7,18.1-10.7,29.7v42.1
			c0,11.6,3.6,21.5,10.7,29.7s16.4,12.3,27.8,12.3h231.4l-96.3,96.3c-8.3,8.3-12.5,18.3-12.5,29.9c0,11.6,4.2,21.6,12.5,29.9
			l24.6,24.6c8.5,8.1,18.4,12.2,29.6,12.2c11.4,0,21.4-4.1,29.9-12.2l213.9-213.9c8.1-8.1,12.2-18.1,12.2-29.9
			C430,244.6,425.9,234.8,417.8,227.1z"/>
	</g>
</g>
<text transform="matrix(1 0 0 1 36.668 255.522)" class="st1 st2">review-left.svg</text>
</svg>
